<svg width="41" height="28" viewBox="0 0 41 28" fill="none" xmlns="http://www.w3.org/2000/svg">
<rect x="0.546875" y="0.563965" width="39.5556" height="27.3846" rx="13.6923" fill="#292929"/>
<g clip-path="url(#clip0_19207_1936)">
<path d="M26.6624 14.2565C26.6635 15.0915 26.4991 15.9184 26.1787 16.6894C25.8584 17.4604 25.3884 18.1603 24.7959 18.7487C24.2083 19.3352 23.5109 19.8003 22.7434 20.1172C21.976 20.4341 21.1537 20.5966 20.3234 20.5955C16.8224 20.5955 13.9844 17.7576 13.9844 14.2565C13.9822 12.6311 14.6065 11.0674 15.7276 9.89051C16.3192 9.2663 17.0318 8.76937 17.8221 8.43012C18.6123 8.09086 19.4634 7.91643 20.3234 7.91749C21.1537 7.91641 21.976 8.07897 22.7434 8.39586C23.5109 8.71276 24.2083 9.17779 24.7959 9.76436C25.3884 10.3527 25.8584 11.0526 26.1787 11.8236C26.4991 12.5947 26.6635 13.4216 26.6624 14.2565Z" stroke="white" stroke-width="1.52137" stroke-linecap="round" stroke-linejoin="round"/>
<path d="M26.6625 14.2564C25.7377 14.2564 23.1862 13.9078 20.9026 14.9103C18.4218 15.9997 16.6256 17.6896 15.8428 18.7403" stroke="white" stroke-width="1.52137" stroke-linecap="round" stroke-linejoin="round"/>
<path d="M17.9473 8.37891C18.9393 9.29458 21.1041 11.6258 21.9092 13.9401C22.7142 16.2545 23.0122 19.1001 23.196 19.9099" stroke="white" stroke-width="1.52137" stroke-linecap="round" stroke-linejoin="round"/>
<path d="M14.0352 13.4641C15.2326 13.5364 18.4024 13.6013 20.4309 12.7351C22.4594 11.8689 24.2049 10.2756 24.8036 9.77002M14.4618 16.6694C15.0203 18.0215 16.0277 19.1398 17.3143 19.8361" stroke="white" stroke-width="1.52137" stroke-linecap="round" stroke-linejoin="round"/>
<path d="M13.9844 14.2565C13.9822 12.6311 14.6065 11.0674 15.7276 9.89051C16.3192 9.2663 17.0318 8.76937 17.8221 8.43012C18.6123 8.09086 19.4634 7.91643 20.3234 7.91749M22.859 8.44489C23.5809 8.76075 24.2377 9.20819 24.7959 9.76436C25.3884 10.3527 25.8584 11.0526 26.1787 11.8236C26.4991 12.5947 26.6635 13.4216 26.6624 14.2565C26.6624 15.0369 26.5214 15.7845 26.2631 16.4752M20.3234 20.5955C21.1537 20.5966 21.976 20.4341 22.7434 20.1172C23.5109 19.8003 24.2083 19.3352 24.7959 18.7487" stroke="white" stroke-width="1.52137" stroke-linecap="round" stroke-linejoin="round"/>
</g>
<defs>
<clipPath id="clip0_19207_1936">
<rect width="15.2137" height="15.2137" fill="white" transform="translate(12.7178 6.64941)"/>
</clipPath>
</defs>
</svg>
