<svg width="41" height="28" viewBox="0 0 41 28" fill="none" xmlns="http://www.w3.org/2000/svg">
<rect x="0.512695" y="0.563965" width="39.5556" height="27.3846" rx="13.6923" fill="#292929"/>
<g clip-path="url(#clip0_19207_1949)">
<path fill-rule="evenodd" clip-rule="evenodd" d="M15.219 14.257C15.2191 13.2811 15.5008 12.3259 16.0302 11.5061C16.5597 10.6863 17.3145 10.0367 18.204 9.63522C19.0936 9.23375 20.08 9.09748 21.0451 9.24275C22.0101 9.38802 22.9128 9.80866 23.6447 10.4542C24.3766 11.0998 24.9067 11.9428 25.1714 12.8821C25.436 13.8215 25.4241 14.8172 25.1368 15.75C24.8496 16.6827 24.2994 17.5127 23.5521 18.1404C22.8049 18.7681 21.8924 19.1669 20.9241 19.2889V15.5248H22.1919C22.36 15.5248 22.5213 15.458 22.6402 15.3391C22.759 15.2203 22.8258 15.059 22.8258 14.8909C22.8258 14.7228 22.759 14.5615 22.6402 14.4427C22.5213 14.3238 22.36 14.257 22.1919 14.257H20.9241V12.9892C20.9241 12.8211 20.9909 12.6598 21.1098 12.541C21.2287 12.4221 21.3899 12.3553 21.558 12.3553H21.875C22.0431 12.3553 22.2043 12.2885 22.3232 12.1696C22.4421 12.0507 22.5089 11.8895 22.5089 11.7214C22.5089 11.5533 22.4421 11.392 22.3232 11.2732C22.2043 11.1543 22.0431 11.0875 21.875 11.0875H21.558C21.0536 11.0875 20.5699 11.2878 20.2133 11.6445C19.8567 12.0011 19.6563 12.4848 19.6563 12.9892V14.257H18.3885C18.2204 14.257 18.0591 14.3238 17.9403 14.4427C17.8214 14.5615 17.7546 14.7228 17.7546 14.8909C17.7546 15.059 17.8214 15.2203 17.9403 15.3391C18.0591 15.458 18.2204 15.5248 18.3885 15.5248H19.6563V19.2889C18.4308 19.1344 17.3038 18.5379 16.4868 17.6115C15.6698 16.685 15.219 15.4922 15.219 14.257ZM20.2902 20.596C23.7913 20.596 26.6292 17.758 26.6292 14.257C26.6292 10.756 23.7913 7.91797 20.2902 7.91797C16.7892 7.91797 13.9512 10.756 13.9512 14.257C13.9512 17.758 16.7892 20.596 20.2902 20.596Z" fill="white"/>
</g>
<defs>
<clipPath id="clip0_19207_1949">
<rect width="15.2137" height="15.2137" fill="white" transform="translate(12.6836 6.64941)"/>
</clipPath>
</defs>
</svg>
