<svg width="41" height="28" viewBox="0 0 41 28" fill="none" xmlns="http://www.w3.org/2000/svg">
<rect x="0.530273" y="0.563965" width="39.5556" height="27.3846" rx="13.6923" fill="#292929"/>
<path d="M20.3084 12.3548C19.8041 12.3548 19.3203 12.5552 18.9637 12.9118C18.6071 13.2684 18.4067 13.7521 18.4067 14.2565C18.4067 14.7609 18.6071 15.2446 18.9637 15.6012C19.3203 15.9579 19.8041 16.1582 20.3084 16.1582C20.8128 16.1582 21.2965 15.9579 21.6531 15.6012C22.0098 15.2446 22.2101 14.7609 22.2101 14.2565C22.2101 13.7521 22.0098 13.2684 21.6531 12.9118C21.2965 12.5552 20.8128 12.3548 20.3084 12.3548ZM20.3084 11.087C21.149 11.087 21.9552 11.4209 22.5496 12.0153C23.144 12.6097 23.4779 13.4159 23.4779 14.2565C23.4779 15.0971 23.144 15.9033 22.5496 16.4977C21.9552 17.0921 21.149 17.426 20.3084 17.426C19.4678 17.426 18.6616 17.0921 18.0672 16.4977C17.4728 15.9033 17.1389 15.0971 17.1389 14.2565C17.1389 13.4159 17.4728 12.6097 18.0672 12.0153C18.6616 11.4209 19.4678 11.087 20.3084 11.087ZM24.4288 10.9285C24.4288 11.1387 24.3453 11.3402 24.1967 11.4888C24.0481 11.6374 23.8466 11.7209 23.6364 11.7209C23.4263 11.7209 23.2247 11.6374 23.0761 11.4888C22.9275 11.3402 22.844 11.1387 22.844 10.9285C22.844 10.7184 22.9275 10.5168 23.0761 10.3682C23.2247 10.2196 23.4263 10.1361 23.6364 10.1361C23.8466 10.1361 24.0481 10.2196 24.1967 10.3682C24.3453 10.5168 24.4288 10.7184 24.4288 10.9285ZM20.3084 9.18529C18.7401 9.18529 18.484 9.18972 17.7544 9.22205C17.2574 9.24551 16.924 9.31207 16.6147 9.43251C16.3558 9.52755 16.1217 9.6799 15.93 9.87814C15.7316 10.0698 15.5791 10.3039 15.4838 10.5628C15.3633 10.8734 15.2968 11.2062 15.274 11.7025C15.241 12.4023 15.2366 12.647 15.2366 14.2565C15.2366 15.8254 15.241 16.0809 15.2733 16.8105C15.2968 17.3069 15.3633 17.6409 15.4831 17.9496C15.5909 18.2254 15.7177 18.4238 15.9281 18.6342C16.1418 18.8472 16.3402 18.9747 16.6128 19.0799C16.9259 19.201 17.2593 19.2681 17.7538 19.291C18.4536 19.3239 18.6983 19.3277 20.3078 19.3277C21.8767 19.3277 22.1322 19.3233 22.8618 19.291C23.3575 19.2675 23.6909 19.201 24.0009 19.0811C24.2595 18.9856 24.4935 18.8334 24.6855 18.6355C24.8991 18.4225 25.0266 18.2241 25.1318 17.9509C25.2522 17.639 25.3194 17.3056 25.3422 16.8099C25.3752 16.1107 25.379 15.8654 25.379 14.2565C25.379 12.6882 25.3746 12.4321 25.3422 11.7025C25.3188 11.2068 25.2516 10.8721 25.1318 10.5628C25.0362 10.3041 24.884 10.0702 24.6862 9.87814C24.4945 9.67963 24.2605 9.52707 24.0015 9.43187C23.6909 9.31143 23.3575 9.24487 22.8618 9.22205C22.1626 9.18909 21.9179 9.18529 20.3078 9.18529M20.3078 7.91748C22.0301 7.91748 22.245 7.92382 22.9214 7.95551C23.5958 7.98721 24.0561 8.09307 24.4598 8.25028C24.8782 8.41129 25.2307 8.62935 25.5831 8.98117C25.9055 9.29806 26.1549 9.68137 26.314 10.1044C26.4706 10.5082 26.5771 10.9685 26.6088 11.6436C26.6386 12.3193 26.6468 12.5342 26.6468 14.2565C26.6468 15.9788 26.6405 16.1937 26.6088 16.8695C26.5771 17.5446 26.4706 18.0041 26.314 18.4086C26.1553 18.8319 25.9058 19.2153 25.5831 19.5319C25.2661 19.8541 24.8829 20.1035 24.4598 20.2627C24.0561 20.4193 23.5958 20.5258 22.9214 20.5575C22.245 20.5873 22.0301 20.5955 20.3078 20.5955C18.5855 20.5955 18.3706 20.5892 17.6942 20.5575C17.0197 20.5258 16.5601 20.4193 16.1557 20.2627C15.7325 20.1039 15.3491 19.8545 15.0324 19.5319C14.7101 19.215 14.4606 18.8317 14.3015 18.4086C14.1443 18.0048 14.0385 17.5446 14.0068 16.8695C13.9764 16.1937 13.9688 15.9788 13.9688 14.2565C13.9688 12.5342 13.9751 12.3193 14.0068 11.6436C14.0385 10.9685 14.1443 10.5089 14.3015 10.1044C14.4602 9.68111 14.7097 9.29769 15.0324 8.98117C15.3492 8.65866 15.7325 8.40922 16.1557 8.25028C16.5595 8.09307 17.0191 7.98721 17.6942 7.95551C18.3712 7.92572 18.5861 7.91748 20.3084 7.91748" fill="white"/>
</svg>
